# xmcd
#
# Track frame offsets:
#	150
#	10769
#	23402
#	36421
#	50198
#	62749
#	77356
#	96397
#	111385
#	127549
#	142655
#	162054
#	175086
#	188464
#
# Disc length: 2728 seconds
#
# Revision: 0
# Processed by: cddbd v1.5.2PL0 Copyright (c) Steve Scherf et al.
# Submitted via: dBpowerAMP V4.0
#
DISCID=a10aa60e
DTITLE=Marisa Monte - O que você quer saber de verdade
DYEAR=2011
DGENRE=MPB
TTITLE0=O que você quer saber de verdade
TTITLE1=Descalço no parque
TTITLE2=Depois
TTITLE3=Amar alguém
TTITLE4=Marisa Monte com Rodrigo Amarante - O que se quer
TTITLE5=Nada tudo
TTITLE6=Verdade, uma ilusão
TTITLE7=Lencinho querido
TTITLE8=Ainda bem
TTITLE9=Aquela velha canção
TTITLE10=Era óbvio
TTITLE11=Hoje eu não saio, não
TTITLE12=Seja feliz
TTITLE13=Bem aqui
EXTD=1893C09A-CFAD-4C4E-8249E-1AB7-CC64-0DC2
EXTT0=
EXTT1=
EXTT2=
EXTT3=
EXTT4=
EXTT5=
EXTT6=
EXTT7=
EXTT8=
EXTT9=
EXTT10=
EXTT11=
EXTT12=
EXTT13=
PLAYORDER=
